<svg xmlns="http://www.w3.org/2000/svg" viewBox="0 0 64 64" fill="none">
  <defs>
    <linearGradient id="swGrad" x1="0%" y1="0%" x2="100%" y2="100%">
      <stop offset="0%" style="stop-color:#34d399;stop-opacity:1" />
      <stop offset="100%" style="stop-color:#10b981;stop-opacity:1" />
    </linearGradient>
  </defs>
  <!-- Switch body -->
  <rect x="4" y="20" width="56" height="24" rx="4" fill="url(#swGrad)" opacity="0.9"/>
  <!-- Ports row 1 -->
  <rect x="10" y="26" width="6" height="5" rx="1" fill="#064e3b"/>
  <rect x="20" y="26" width="6" height="5" rx="1" fill="#064e3b"/>
  <rect x="30" y="26" width="6" height="5" rx="1" fill="#064e3b"/>
  <rect x="40" y="26" width="6" height="5" rx="1" fill="#064e3b"/>
  <rect x="50" y="26" width="6" height="5" rx="1" fill="#064e3b"/>
  <!-- Ports row 2 -->
  <rect x="10" y="33" width="6" height="5" rx="1" fill="#064e3b"/>
  <rect x="20" y="33" width="6" height="5" rx="1" fill="#064e3b"/>
  <rect x="30" y="33" width="6" height="5" rx="1" fill="#064e3b"/>
  <rect x="40" y="33" width="6" height="5" rx="1" fill="#064e3b"/>
  <rect x="50" y="33" width="6" height="5" rx="1" fill="#064e3b"/>
  <!-- Status LEDs -->
  <circle cx="12" cy="48" r="2" fill="#22c55e"/>
  <circle cx="20" cy="48" r="2" fill="#22c55e"/>
  <circle cx="28" cy="48" r="2" fill="#fbbf24"/>
</svg>
