<svg xmlns="http://www.w3.org/2000/svg" viewBox="0 0 64 64" fill="none">
  <defs>
    <linearGradient id="cloudGrad" x1="0%" y1="0%" x2="100%" y2="100%">
      <stop offset="0%" style="stop-color:#60a5fa;stop-opacity:1" />
      <stop offset="100%" style="stop-color:#3b82f6;stop-opacity:1" />
    </linearGradient>
  </defs>
  <!-- Cloud body -->
  <path d="M52 36c0-6.627-5.373-12-12-12-1.054 0-2.076.136-3.052.39C34.945 18.89 29.884 15 24 15c-7.732 0-14 6.268-14 14 0 .673.048 1.334.14 1.981C5.63 32.426 2 36.863 2 42c0 6.075 4.925 11 11 11h36c5.523 0 10-4.477 10-10 0-4.142-2.522-7.693-6.113-9.209A12.03 12.03 0 0 0 52 36z" fill="url(#cloudGrad)" opacity="0.9"/>
  <!-- Cloud highlight -->
  <ellipse cx="24" cy="26" rx="8" ry="5" fill="#93c5fd" opacity="0.4"/>
</svg>
