<svg xmlns="http://www.w3.org/2000/svg" viewBox="0 0 64 64" fill="none">
  <defs>
    <linearGradient id="fwGrad" x1="0%" y1="0%" x2="100%" y2="100%">
      <stop offset="0%" style="stop-color:#f87171;stop-opacity:1" />
      <stop offset="100%" style="stop-color:#ef4444;stop-opacity:1" />
    </linearGradient>
  </defs>
  <!-- Shield body -->
  <path d="M32 4L6 14v18c0 14 11 24 26 28 15-4 26-14 26-28V14L32 4z" fill="url(#fwGrad)" opacity="0.9"/>
  <!-- Shield center -->
  <path d="M32 12L12 20v12c0 10 8 17 20 20 12-3 20-10 20-20V20L32 12z" fill="#1a1a2e" opacity="0.6"/>
  <!-- Flame icon -->
  <path d="M32 22c-4 6-8 10-8 16 0 4.4 3.6 8 8 8s8-3.6 8-8c0-6-4-10-8-16z" fill="#fbbf24" opacity="0.9"/>
  <path d="M32 28c-2 3-4 5-4 9 0 2.2 1.8 4 4 4s4-1.8 4-4c0-4-2-6-4-9z" fill="#fb923c" opacity="0.8"/>
</svg>
